<?xml version="1.0" encoding="UTF-8" standalone="no"?>
<!-- Created with Inkscape (http://www.inkscape.org/) -->

<svg
   version="1.1"
   id="svg2"
   width="445.39996"
   height="325.22998"
   viewBox="0 0 445.39996 325.22997"
   sodipodi:docname="1_SymmetricalSwings_dark.png"
   inkscape:version="1.2.2 (b0a8486541, 2022-12-01)"
   inkscape:dataloss="true"
   xmlns:inkscape="http://www.inkscape.org/namespaces/inkscape"
   xmlns:sodipodi="http://sodipodi.sourceforge.net/DTD/sodipodi-0.dtd"
   xmlns="http://www.w3.org/2000/svg"
   xmlns:svg="http://www.w3.org/2000/svg">
  <sodipodi:namedview
     id="namedview63"
     pagecolor="#ffffff"
     bordercolor="#000000"
     borderopacity="0.25"
     inkscape:showpageshadow="2"
     inkscape:pageopacity="0.0"
     inkscape:pagecheckerboard="0"
     inkscape:deskcolor="#d1d1d1"
     showgrid="false"
     inkscape:zoom="0.72564036"
     inkscape:cx="223.94013"
     inkscape:cy="162.61499"
     inkscape:window-width="1920"
     inkscape:window-height="1120"
     inkscape:window-x="0"
     inkscape:window-y="0"
     inkscape:window-maximized="1"
     inkscape:current-layer="svg2" />
  <defs
     id="defs6">
    <filter
       style="color-interpolation-filters:sRGB"
       inkscape:label="Invert"
       id="filter348"
       x="0"
       y="-0.002002588"
       width="1"
       height="1.0020026">
      <feColorMatrix
         values="-1 0 0 0 1 0 -1 0 0 1 0 0 -1 0 1 -0.21 -0.72 -0.07 2 0 "
         result="color2"
         id="feColorMatrix346" />
    </filter>
  </defs>
  <g
     id="g10"
     transform="matrix(1.3333333,0,0,-1.3333333,-95.999598,420.57999)"
     style="filter:url(#filter348)">
    <g
       id="g12"
       transform="scale(0.1)">
      <path
         d="m 3180,1605 -600,300 v -600 z"
         style="fill:none;stroke:#000000;stroke-width:9.75;stroke-linecap:round;stroke-linejoin:bevel;stroke-miterlimit:6;stroke-dasharray:none;stroke-opacity:1"
         id="path14" />
      <g
         id="g16"
         transform="scale(10)">
        <text
           xml:space="preserve"
           transform="matrix(1,0,0,-1,261.195,174.045)"
           style="font-variant:normal;font-weight:normal;font-size:15px;font-family:Symbol;-inkscape-font-specification:Symbol;writing-mode:lr-tb;fill:#000000;fill-opacity:1;fill-rule:nonzero;stroke:none"
           id="text22"><tspan
             x="0"
             y="0"
             id="tspan18">−</tspan><tspan
             x="-0.038281299"
             y="36.292198"
             id="tspan20">+</tspan></text>
      </g>
      <path
         d="m 2400,1185 c 0,66.27 -53.73,120 -120,120 -66.27,0 -120,-53.73 -120,-120 0,-66.27 53.73,-120 120,-120 66.27,0 120,53.73 120,120"
         style="fill:none;stroke:#000000;stroke-width:9.75;stroke-linecap:round;stroke-linejoin:bevel;stroke-miterlimit:6;stroke-dasharray:none;stroke-opacity:1"
         id="path24" />
      <path
         d="M 2280,1425 V 1305"
         style="fill:none;stroke:#000000;stroke-width:9.75;stroke-linecap:round;stroke-linejoin:bevel;stroke-miterlimit:6;stroke-dasharray:none;stroke-opacity:1"
         id="path26" />
      <path
         d="m 2280,945 v 120"
         style="fill:none;stroke:#000000;stroke-width:9.75;stroke-linecap:round;stroke-linejoin:bevel;stroke-miterlimit:6;stroke-dasharray:none;stroke-opacity:1"
         id="path28" />
      <g
         id="g30"
         transform="scale(10)">
        <text
           xml:space="preserve"
           transform="matrix(1,0,0,-1,224.032,119.752)"
           style="font-variant:normal;font-weight:normal;font-size:15px;font-family:Symbol;-inkscape-font-specification:Symbol;writing-mode:lr-tb;fill:#000000;fill-opacity:1;fill-rule:nonzero;stroke:none"
           id="text36"><tspan
             x="0"
             y="0"
             id="tspan32">+</tspan><tspan
             x="0.038281299"
             y="11.7078"
             id="tspan34">−</tspan></text>
      </g>
      <path
         d="M 2280,825 V 945"
         style="fill:none;stroke:#000000;stroke-width:9.75;stroke-linecap:round;stroke-linejoin:bevel;stroke-miterlimit:6;stroke-dasharray:none;stroke-opacity:1"
         id="path38" />
      <path
         d="M 2400,825 H 2160"
         style="fill:none;stroke:#000000;stroke-width:9.75;stroke-linecap:round;stroke-linejoin:bevel;stroke-miterlimit:6;stroke-dasharray:none;stroke-opacity:1"
         id="path40" />
      <path
         d="m 2347.5,772.5 h -135"
         style="fill:none;stroke:#000000;stroke-width:9.75;stroke-linecap:round;stroke-linejoin:bevel;stroke-miterlimit:6;stroke-dasharray:none;stroke-opacity:1"
         id="path42" />
      <path
         d="m 2295,720 h -30"
         style="fill:none;stroke:#000000;stroke-width:9.75;stroke-linecap:round;stroke-linejoin:bevel;stroke-miterlimit:6;stroke-dasharray:none;stroke-opacity:1"
         id="path44" />
      <path
         d="M 2580,1425 H 2280"
         style="fill:none;stroke:#000000;stroke-width:9.75;stroke-linecap:round;stroke-linejoin:bevel;stroke-miterlimit:6;stroke-dasharray:none;stroke-opacity:1"
         id="path46" />
      <path
         d="m 1935,1785 h 105"
         style="fill:none;stroke:#000000;stroke-width:9.75;stroke-linecap:round;stroke-linejoin:bevel;stroke-miterlimit:6;stroke-dasharray:none;stroke-opacity:1"
         id="path48" />
      <path
         d="M 1665,1785 H 1560"
         style="fill:none;stroke:#000000;stroke-width:9.75;stroke-linecap:round;stroke-linejoin:bevel;stroke-miterlimit:6;stroke-dasharray:none;stroke-opacity:1"
         id="path50" />
      <path
         d="m 1935,1785 -22.5,52.5 -45,-105 -45,105 -45,-105 -45,105 -45,-105 -22.5,52.5"
         style="fill:none;stroke:#000000;stroke-width:9.75;stroke-linecap:round;stroke-linejoin:bevel;stroke-miterlimit:6;stroke-dasharray:none;stroke-opacity:1"
         id="path52" />
      <path
         d="M 2580,1785 H 2220"
         style="fill:none;stroke:#000000;stroke-width:9.75;stroke-linecap:round;stroke-linejoin:bevel;stroke-miterlimit:6;stroke-dasharray:none;stroke-opacity:1"
         id="path54" />
      <path
         d="m 3075,2265 h 105"
         style="fill:none;stroke:#000000;stroke-width:9.75;stroke-linecap:round;stroke-linejoin:bevel;stroke-miterlimit:6;stroke-dasharray:none;stroke-opacity:1"
         id="path56" />
      <path
         d="M 2805,2265 H 2700"
         style="fill:none;stroke:#000000;stroke-width:9.75;stroke-linecap:round;stroke-linejoin:bevel;stroke-miterlimit:6;stroke-dasharray:none;stroke-opacity:1"
         id="path58" />
      <path
         d="m 3075,2265 -22.5,52.5 -45,-105 -45,105 -45,-105 -45,105 -45,-105 -22.5,52.5"
         style="fill:none;stroke:#000000;stroke-width:9.75;stroke-linecap:round;stroke-linejoin:bevel;stroke-miterlimit:6;stroke-dasharray:none;stroke-opacity:1"
         id="path60" />
      <path
         d="M 2700,2265 H 2280 V 1785"
         style="fill:none;stroke:#000000;stroke-width:9.75;stroke-linecap:round;stroke-linejoin:bevel;stroke-miterlimit:6;stroke-dasharray:none;stroke-opacity:1"
         id="path62" />
      <path
         d="m 3180,2265 h 420 v -660 h -420"
         style="fill:none;stroke:#000000;stroke-width:9.75;stroke-linecap:round;stroke-linejoin:bevel;stroke-miterlimit:6;stroke-dasharray:none;stroke-opacity:1"
         id="path64" />
      <path
         d="m 1320,1185 c 0,66.27 -53.73,120 -120,120 -66.27,0 -120,-53.73 -120,-120 0,-66.27 53.73,-120 120,-120 66.27,0 120,53.73 120,120"
         style="fill:none;stroke:#000000;stroke-width:9.75;stroke-linecap:round;stroke-linejoin:bevel;stroke-miterlimit:6;stroke-dasharray:none;stroke-opacity:1"
         id="path66" />
      <path
         d="m 1260,1245 h -60 v -120 h -60"
         style="fill:none;stroke:#000000;stroke-width:9.75;stroke-linecap:round;stroke-linejoin:bevel;stroke-miterlimit:6;stroke-dasharray:none;stroke-opacity:1"
         id="path68" />
      <path
         d="m 2040,1785 h 180"
         style="fill:none;stroke:#000000;stroke-width:9.75;stroke-linecap:round;stroke-linejoin:bevel;stroke-miterlimit:6;stroke-dasharray:none;stroke-opacity:1"
         id="path70" />
      <path
         d="m 1200,1305 v 480 h 360"
         style="fill:none;stroke:#000000;stroke-width:9.75;stroke-linecap:round;stroke-linejoin:bevel;stroke-miterlimit:6;stroke-dasharray:none;stroke-opacity:1"
         id="path72" />
      <path
         d="M 1200,825 V 945"
         style="fill:none;stroke:#000000;stroke-width:9.75;stroke-linecap:round;stroke-linejoin:bevel;stroke-miterlimit:6;stroke-dasharray:none;stroke-opacity:1"
         id="path74" />
      <path
         d="M 1320,825 H 1080"
         style="fill:none;stroke:#000000;stroke-width:9.75;stroke-linecap:round;stroke-linejoin:bevel;stroke-miterlimit:6;stroke-dasharray:none;stroke-opacity:1"
         id="path76" />
      <path
         d="m 1267.5,772.5 h -135"
         style="fill:none;stroke:#000000;stroke-width:9.75;stroke-linecap:round;stroke-linejoin:bevel;stroke-miterlimit:6;stroke-dasharray:none;stroke-opacity:1"
         id="path78" />
      <path
         d="m 1215,720 h -30"
         style="fill:none;stroke:#000000;stroke-width:9.75;stroke-linecap:round;stroke-linejoin:bevel;stroke-miterlimit:6;stroke-dasharray:none;stroke-opacity:1"
         id="path80" />
      <path
         d="M 1200,1065 V 945"
         style="fill:none;stroke:#000000;stroke-width:9.75;stroke-linecap:round;stroke-linejoin:bevel;stroke-miterlimit:6;stroke-dasharray:none;stroke-opacity:1"
         id="path82" />
      <g
         id="g84"
         transform="scale(10)">
        <text
           xml:space="preserve"
           transform="matrix(1,0,0,-1,71.3547,118.5)"
           style="font-variant:normal;font-weight:normal;font-size:15px;font-family:Helvetica;-inkscape-font-specification:Helvetica;writing-mode:lr-tb;fill:#000000;fill-opacity:1;fill-rule:nonzero;stroke:none"
           id="text98"><tspan
             x="0 8.3400002 12.51 20.85 25.02"
             y="0"
             id="tspan86">0.1 V</tspan><tspan
             x="174 182.34 186.50999 194.85001 199.02"
             y="6"
             id="tspan88">0.5 V</tspan><tspan
             x="138 146.34 150.50999 158.85001 163.02"
             y="-42"
             id="tspan90">0.5 V</tspan><tspan
             x="300 308.34 312.51001 320.85001 325.01999"
             y="-36"
             id="tspan92">0.9 V</tspan><tspan
             x="95.115997 103.456 111.796 115.966"
             y="-42"
             id="tspan94">10 k</tspan><tspan
             x="209.116 217.45599 225.79601 229.966"
             y="-90"
             id="tspan96">10 k</tspan></text>
      </g>
      <path
         d="M 3600,2865 H 1920 v -720 h -780"
         style="fill:none;stroke:#ff0000;stroke-width:9.75;stroke-linecap:round;stroke-linejoin:bevel;stroke-miterlimit:6;stroke-dasharray:none;stroke-opacity:1"
         id="path100" />
      <path
         d="m 3585,2895 c -37.5,-18.75 -48.75,-18.75 -105,-30 56.25,-11.25 67.5,-11.25 105,-30 -7.5,22.5 -7.5,37.5 0,60"
         style="fill:#ff0000;fill-opacity:1;fill-rule:evenodd;stroke:none"
         id="path102" />
      <path
         d="m 2625,2895 c -37.5,-18.75 -48.75,-18.75 -105,-30 56.25,-11.25 67.5,-11.25 105,-30 -7.5,22.5 -7.5,37.5 0,60"
         style="fill:#ff0000;fill-opacity:1;fill-rule:evenodd;stroke:none"
         id="path104" />
      <path
         d="m 1905,2175 c -37.5,-18.75 -48.75,-18.75 -105,-30 56.25,-11.25 67.5,-11.25 105,-30 -7.5,22.5 -7.5,37.5 0,60"
         style="fill:#ff0000;fill-opacity:1;fill-rule:evenodd;stroke:none"
         id="path106" />
      <path
         d="m 1245,2175 c -37.5,-18.75 -48.75,-18.75 -105,-30 56.25,-11.25 67.5,-11.25 105,-30 -7.5,22.5 -7.5,37.5 0,60"
         style="fill:#ff0000;fill-opacity:1;fill-rule:evenodd;stroke:none"
         id="path108" />
      <g
         id="g110"
         transform="scale(10)">
        <text
           xml:space="preserve"
           transform="matrix(1,0,0,-1,233.58,304.5)"
           style="font-variant:normal;font-weight:normal;font-size:15px;font-family:Helvetica;-inkscape-font-specification:Helvetica;writing-mode:lr-tb;fill:#ff0000;fill-opacity:1;fill-rule:nonzero;stroke:none"
           id="text114"><tspan
             x="0 8.3400002 16.68 20.85 29.190001"
             y="0"
             id="tspan112">40 uA</tspan></text>
      </g>
      <g
         id="g116"
         transform="scale(10)">
        <text
           xml:space="preserve"
           transform="matrix(1,0,0,-1,281.355,244.5)"
           style="font-variant:normal;font-weight:normal;font-size:15px;font-family:Helvetica;-inkscape-font-specification:Helvetica;writing-mode:lr-tb;fill:#0000ff;fill-opacity:1;fill-rule:nonzero;stroke:none"
           id="text126"><tspan
             x="0 8.3400002 12.51 20.85 25.02"
             y="0"
             id="tspan118">0.4 V</tspan><tspan
             x="-120 -111.66 -107.49 -99.150002 -94.980003"
             y="48"
             id="tspan120">0.4 V</tspan><tspan
             x="41.895 -24.045601"
             y="0"
             id="tspan122">+-</tspan><tspan
             x="-72.105003 -138.04559"
             y="48"
             id="tspan124">+-</tspan></text>
      </g>
    </g>
  </g>
</svg>
