<?xml version="1.0" encoding="UTF-8" standalone="no"?>
<svg
   version="1.1"
   id="/home/anbu/QucsWorkspace/CH_24_OpAmpsI_prj/Docs/Figure_24_31/ASSETS/3_IfICMRHad"
   width="100%"
   height="100%"
   viewBox="-6 -6 1051 684"
   xmlns="http://www.w3.org/2000/svg"
   xmlns:svg="http://www.w3.org/2000/svg">
  <defs
     id="defs189">
    <filter
       style="color-interpolation-filters:sRGB;"
       id="filter474"
       x="0"
       y="0"
       width="1"
       height="1.0014681">
      <feColorMatrix
         values="-1 0 0 0 1 0 -1 0 0 1 0 0 -1 0 1 -0.21 -0.72 -0.07 2 0 "
         result="color2"
         id="feColorMatrix472" />
    </filter>
  </defs>
  <desc
     id="desc2">
XCircuit Version 3.9
File &quot;/home/anbu/QucsWorkspace/CH_24_OpAmpsI_prj/Docs/Figure_24_31/ASSETS/3_IfICMRHadVDDbyTwo.ps&quot; Page 1
</desc>
  <g
     stroke="black"
     id="g184"
     style="filter:url(#filter474)">
    <path
       d="M560,522 L560,362 720,442 z"
       fill="none"
       stroke-width="2"
       stroke-linejoin="bevel"
       stroke-linecap="round"
       stroke="#000000"
       id="path4" />
    <g
       transform="matrix(   1    0   -0    1 579 400)"
       fill="#000000"
       id="g10">
      <text
         stroke="none"
         font-family="Times"
         font-size="40"
         id="text8"><tspan
           x="-12"
           y="6"
           id="tspan6">−</tspan></text>
    </g>
    <g
       transform="matrix(   1    0   -0    1 579 492)"
       fill="#000000"
       id="g16">
      <text
         stroke="none"
         font-family="Times"
         font-size="40"
         id="text14"><tspan
           x="-11"
           y="10"
           id="tspan12">+</tspan></text>
    </g>
    <path
       d="M368,394 L340,394 "
       fill="none"
       stroke-width="2"
       stroke-linejoin="bevel"
       stroke-linecap="round"
       stroke="#000000"
       id="path18" />
    <path
       d="M240,394 L268,394 "
       fill="none"
       stroke-width="2"
       stroke-linejoin="bevel"
       stroke-linecap="round"
       stroke="#000000"
       id="path20" />
    <path
       d="M268,394 L274,408 286,380 298,408 310,380 322,408 334,380 340,394 "
       fill="none"
       stroke-width="2"
       stroke-linejoin="bevel"
       stroke-linecap="round"
       stroke="#000000"
       id="path22" />
    <ellipse
       cx="296"
       cy="231"
       rx="0"
       ry="0"
       fill="none"
       stroke-width="2"
       stroke-linejoin="bevel"
       stroke-linecap="round"
       stroke="#000000"
       id="ellipse24" />
    <path
       d="M368,394 L512,394 "
       fill="none"
       stroke-width="2"
       stroke-linejoin="bevel"
       stroke-linecap="round"
       stroke="#000000"
       id="path26" />
    <path
       d="M688,218 L660,218 "
       fill="none"
       stroke-width="2"
       stroke-linejoin="bevel"
       stroke-linecap="round"
       stroke="#000000"
       id="path28" />
    <path
       d="M560,218 L588,218 "
       fill="none"
       stroke-width="2"
       stroke-linejoin="bevel"
       stroke-linecap="round"
       stroke="#000000"
       id="path30" />
    <path
       d="M588,218 L594,232 606,204 618,232 630,204 642,232 654,204 660,218 "
       fill="none"
       stroke-width="2"
       stroke-linejoin="bevel"
       stroke-linecap="round"
       stroke="#000000"
       id="path32" />
    <path
       d="M496,218 L416,218 416,394 "
       fill="none"
       stroke-width="2"
       stroke-linejoin="bevel"
       stroke-linecap="round"
       stroke="#000000"
       id="path34" />
    <ellipse
       cx="416"
       cy="394"
       rx="6"
       ry="6"
       fill="#000000"
       stroke="none"
       id="ellipse36" />
    <ellipse
       cx="480"
       cy="554"
       rx="32"
       ry="32"
       fill="none"
       stroke-width="2"
       stroke-linejoin="bevel"
       stroke-linecap="round"
       stroke="#000000"
       id="ellipse38" />
    <path
       d="M480,522 L480,490 "
       fill="none"
       stroke-width="2"
       stroke-linejoin="bevel"
       stroke-linecap="round"
       stroke="#000000"
       id="path40" />
    <path
       d="M480,586 L480,618 "
       fill="none"
       stroke-width="2"
       stroke-linejoin="bevel"
       stroke-linecap="round"
       stroke="#000000"
       id="path42" />
    <g
       transform="matrix(   1    0   -0    1 480 540)"
       fill="#000000"
       id="g48">
      <text
         stroke="none"
         font-family="Times"
         font-size="40"
         id="text46"><tspan
           x="-11"
           y="10"
           id="tspan44">+</tspan></text>
    </g>
    <g
       transform="matrix(   1    0   -0    1 480 576)"
       fill="#000000"
       id="g54">
      <text
         stroke="none"
         font-family="Times"
         font-size="40"
         id="text52"><tspan
           x="-12"
           y="6"
           id="tspan50">−</tspan></text>
    </g>
    <path
       d="M480,618 L480,650 "
       fill="none"
       stroke-width="2"
       stroke-linejoin="bevel"
       stroke-linecap="round"
       stroke="#000000"
       id="path56" />
    <path
       d="M448,650 L512,650 "
       fill="none"
       stroke-width="2"
       stroke-linejoin="bevel"
       stroke-linecap="round"
       stroke="#000000"
       id="path58" />
    <path
       d="M462,664 L498,664 "
       fill="none"
       stroke-width="2"
       stroke-linejoin="bevel"
       stroke-linecap="round"
       stroke="#000000"
       id="path60" />
    <path
       d="M476,678 L484,678 "
       fill="none"
       stroke-width="2"
       stroke-linejoin="bevel"
       stroke-linecap="round"
       stroke="#000000"
       id="path62" />
    <path
       d="M480,490 L560,490 "
       fill="none"
       stroke-width="2"
       stroke-linejoin="bevel"
       stroke-linecap="round"
       stroke="#000000"
       id="path64" />
    <path
       d="M688,218 L832,218 832,442 720,442 "
       fill="none"
       stroke-width="2"
       stroke-linejoin="bevel"
       stroke-linecap="round"
       stroke="#000000"
       id="path66" />
    <path
       d="M240,394 L144,394 144,490 "
       fill="none"
       stroke-width="2"
       stroke-linejoin="bevel"
       stroke-linecap="round"
       stroke="#000000"
       id="path68" />
    <ellipse
       cx="144"
       cy="554"
       rx="35"
       ry="35"
       fill="none"
       stroke-width="2"
       stroke-linejoin="bevel"
       stroke-linecap="round"
       stroke="#000000"
       id="ellipse70" />
    <path
       d="M128,570 L144,570 144,538 160,538 "
       fill="none"
       stroke-width="2"
       stroke-linejoin="bevel"
       stroke-linecap="round"
       stroke="#000000"
       id="path72" />
    <path
       d="M144,618 L144,650 "
       fill="none"
       stroke-width="2"
       stroke-linejoin="bevel"
       stroke-linecap="round"
       stroke="#000000"
       id="path74" />
    <path
       d="M112,650 L176,650 "
       fill="none"
       stroke-width="2"
       stroke-linejoin="bevel"
       stroke-linecap="round"
       stroke="#000000"
       id="path76" />
    <path
       d="M126,664 L162,664 "
       fill="none"
       stroke-width="2"
       stroke-linejoin="bevel"
       stroke-linecap="round"
       stroke="#000000"
       id="path78" />
    <path
       d="M140,678 L148,678 "
       fill="none"
       stroke-width="2"
       stroke-linejoin="bevel"
       stroke-linecap="round"
       stroke="#000000"
       id="path80" />
    <path
       d="M144,522 L144,490 "
       fill="none"
       stroke-width="2"
       stroke-linejoin="bevel"
       stroke-linecap="round"
       stroke="#000000"
       id="path82" />
    <path
       d="M144,618 L144,586 "
       fill="none"
       stroke-width="2"
       stroke-linejoin="bevel"
       stroke-linecap="round"
       stroke="#000000"
       id="path84" />
    <path
       d="M496,218 L560,218 "
       fill="none"
       stroke-width="2"
       stroke-linejoin="bevel"
       stroke-linecap="round"
       stroke="#000000"
       id="path86" />
    <path
       d="M512,394 L560,394 "
       fill="none"
       stroke-width="2"
       stroke-linejoin="bevel"
       stroke-linecap="round"
       stroke="#000000"
       id="path88" />
    <g
       transform="matrix(   1    0   -0    1 528 570)"
       fill="#000000"
       id="g94">
      <text
         stroke="none"
         font-family="Helvetica"
         font-size="40"
         id="text92"><tspan
           x="0"
           y="0"
           id="tspan90">0.6 V</tspan></text>
    </g>
    <g
       transform="matrix(   1    0   -0    1   0 570)"
       fill="#000000"
       id="g100">
      <text
         stroke="none"
         font-family="Helvetica"
         font-size="40"
         id="text98"><tspan
           x="0"
           y="0"
           id="tspan96">0.1 V</tspan></text>
    </g>
    <g
       transform="matrix(   1    0   -0    1 432 442)"
       fill="#000000"
       id="g106">
      <text
         stroke="none"
         font-family="Helvetica"
         font-size="40"
         id="text104"><tspan
           x="0"
           y="0"
           id="tspan102">0.6 V</tspan></text>
    </g>
    <g
       transform="matrix(   1    0   -0    1 256 330)"
       fill="#0000ff"
       id="g112">
      <text
         stroke="none"
         font-family="Helvetica"
         font-size="40"
         id="text110"><tspan
           x="0"
           y="0"
           id="tspan108">0.5 V</tspan></text>
    </g>
    <g
       transform="matrix(   1    0   -0    1 592 170)"
       fill="#0000ff"
       id="g118">
      <text
         stroke="none"
         font-family="Helvetica"
         font-size="40"
         id="text116"><tspan
           x="0"
           y="0"
           id="tspan114">0.5 V</tspan></text>
    </g>
    <g
       transform="matrix(   1    0   -0    1 736 170)"
       fill="#0000ff"
       id="g124">
      <text
         stroke="none"
         font-family="Helvetica"
         font-size="40"
         id="text122"><tspan
           x="0"
           y="0"
           id="tspan120">+</tspan></text>
    </g>
    <g
       transform="matrix(   1    0   -0    1 512 170)"
       fill="#0000ff"
       id="g130">
      <text
         stroke="none"
         font-family="Helvetica"
         font-size="40"
         id="text128"><tspan
           x="0"
           y="0"
           id="tspan126">-</tspan></text>
    </g>
    <g
       transform="matrix(   1    0   -0    1 384 330)"
       fill="#0000ff"
       id="g136">
      <text
         stroke="none"
         font-family="Helvetica"
         font-size="40"
         id="text134"><tspan
           x="0"
           y="0"
           id="tspan132">+</tspan></text>
    </g>
    <g
       transform="matrix(   1    0   -0    1 192 330)"
       fill="#0000ff"
       id="g142">
      <text
         stroke="none"
         font-family="Helvetica"
         font-size="40"
         id="text140"><tspan
           x="0"
           y="0"
           id="tspan138">-</tspan></text>
    </g>
    <g
       transform="matrix(   1    0   -0    1 592 282)"
       fill="#000000"
       id="g148">
      <text
         stroke="none"
         font-family="Helvetica"
         font-size="40"
         id="text146"><tspan
           x="0"
           y="0"
           id="tspan144">10 k</tspan></text>
    </g>
    <g
       transform="matrix(   1    0   -0    1 272 458)"
       fill="#000000"
       id="g154">
      <text
         stroke="none"
         font-family="Helvetica"
         font-size="40"
         id="text152"><tspan
           x="0"
           y="0"
           id="tspan150">10 k</tspan></text>
    </g>
    <path
       d="M832,74 L304,74 304,250 144,250 "
       fill="none"
       stroke-width="2"
       stroke-linejoin="bevel"
       stroke-linecap="round"
       stroke="#ff0000"
       id="path156" />
    <path
       d="M828,66 C818,71 815,71 800,74 C815,77 818,77 828,82 C826,76 826,72 828,66 "
       fill="#ff0000"
       stroke="none"
       id="path158" />
    <path
       d="M524,66 C514,71 511,71 496,74 C511,77 514,77 524,82 C522,76 522,72 524,66 "
       fill="#ff0000"
       stroke="none"
       id="path160" />
    <path
       d="M332,66 C322,71 319,71 304,74 C319,77 322,77 332,82 C330,76 330,72 332,66 "
       fill="#ff0000"
       stroke="none"
       id="path162" />
    <path
       d="M300,242 C290,247 287,247 272,250 C287,253 290,253 300,258 C298,252 298,248 300,242 "
       fill="#ff0000"
       stroke="none"
       id="path164" />
    <path
       d="M172,242 C162,247 159,247 144,250 C159,253 162,253 172,258 C170,252 170,248 172,242 "
       fill="#ff0000"
       stroke="none"
       id="path166" />
    <g
       transform="matrix(   1    0   -0    1 528  26)"
       fill="#ff0000"
       id="g172">
      <text
         stroke="none"
         font-family="Helvetica"
         font-size="40"
         id="text170"><tspan
           x="0"
           y="0"
           id="tspan168">50 uA</tspan></text>
    </g>
    <g
       transform="matrix(   1    0   -0    1 848 458)"
       fill="#0000ff"
       id="g182">
      <text
         stroke="none"
         font-family="Helvetica"
         font-size="40"
         id="text180"><tspan
           x="0"
           y="0"
           id="tspan178">V<tspan
   dy="9"
   font-size="26.8"
   id="tspan174">out</tspan><tspan
   y="0"
   id="tspan176"> = 1.1 V</tspan></tspan></text>
    </g>
  </g>
</svg>
