<svg xmlns="http://www.w3.org/2000/svg"
   xmlns:xlink="http://www.w3.org/1999/xlink"
   version="1.1"
   id="/home/anbu/QucsWorkspace/CH_24_OpAmpsI_prj/Docs/Figure_24_31/ASSETS/4_FeedbackI" width="100%" height="100%"  viewBox="-6 -6 2195 896">
<desc>
XCircuit Version 3.9
File "/home/anbu/QucsWorkspace/CH_24_OpAmpsI_prj/Docs/Figure_24_31/ASSETS/4_FeedbakcIssue.ps" Page 1
</desc>
<g stroke="black">
<path d="M560,522 L560,362 720,442 z" fill="none" stroke-width="2" stroke-linejoin="bevel" stroke-linecap="round" stroke="#000000" />
<g transform="matrix(   1    0   -0    1 579 400)" fill="#000000" >
<text stroke="none" font-family="Times" font-size="40" ><tspan x="-12" y="6">&#8722;</tspan>
</text></g>
<g transform="matrix(   1    0   -0    1 579 492)" fill="#000000" >
<text stroke="none" font-family="Times" font-size="40" ><tspan x="-11" y="10">+</tspan>
</text></g>
<path d="M368,394 L340,394 " fill="none" stroke-width="2" stroke-linejoin="bevel" stroke-linecap="round" stroke="#000000" />
<path d="M240,394 L268,394 " fill="none" stroke-width="2" stroke-linejoin="bevel" stroke-linecap="round" stroke="#000000" />
<path d="M268,394 L274,408 286,380 298,408 310,380 322,408 334,380 340,394 " fill="none" stroke-width="2" stroke-linejoin="bevel" stroke-linecap="round" stroke="#000000" />
<ellipse cx="296" cy="231" rx="0" ry="0" fill="none" stroke-width="2" stroke-linejoin="bevel" stroke-linecap="round" stroke="#000000" />
<path d="M368,394 L512,394 " fill="none" stroke-width="2" stroke-linejoin="bevel" stroke-linecap="round" stroke="#000000" />
<path d="M688,218 L660,218 " fill="none" stroke-width="2" stroke-linejoin="bevel" stroke-linecap="round" stroke="#000000" />
<path d="M560,218 L588,218 " fill="none" stroke-width="2" stroke-linejoin="bevel" stroke-linecap="round" stroke="#000000" />
<path d="M588,218 L594,232 606,204 618,232 630,204 642,232 654,204 660,218 " fill="none" stroke-width="2" stroke-linejoin="bevel" stroke-linecap="round" stroke="#000000" />
<path d="M496,218 L416,218 416,394 " fill="none" stroke-width="2" stroke-linejoin="bevel" stroke-linecap="round" stroke="#000000" />
<ellipse cx="416" cy="394" rx="6" ry="6" fill="#000000" stroke="none" />
<ellipse cx="480" cy="554" rx="32" ry="32" fill="none" stroke-width="2" stroke-linejoin="bevel" stroke-linecap="round" stroke="#000000" />
<path d="M480,522 L480,490 " fill="none" stroke-width="2" stroke-linejoin="bevel" stroke-linecap="round" stroke="#000000" />
<path d="M480,586 L480,618 " fill="none" stroke-width="2" stroke-linejoin="bevel" stroke-linecap="round" stroke="#000000" />
<g transform="matrix(   1    0   -0    1 480 540)" fill="#000000" >
<text stroke="none" font-family="Times" font-size="40" ><tspan x="-11" y="10">+</tspan>
</text></g>
<g transform="matrix(   1    0   -0    1 480 576)" fill="#000000" >
<text stroke="none" font-family="Times" font-size="40" ><tspan x="-12" y="6">&#8722;</tspan>
</text></g>
<path d="M480,618 L480,650 " fill="none" stroke-width="2" stroke-linejoin="bevel" stroke-linecap="round" stroke="#000000" />
<path d="M448,650 L512,650 " fill="none" stroke-width="2" stroke-linejoin="bevel" stroke-linecap="round" stroke="#000000" />
<path d="M462,664 L498,664 " fill="none" stroke-width="2" stroke-linejoin="bevel" stroke-linecap="round" stroke="#000000" />
<path d="M476,678 L484,678 " fill="none" stroke-width="2" stroke-linejoin="bevel" stroke-linecap="round" stroke="#000000" />
<path d="M480,490 L560,490 " fill="none" stroke-width="2" stroke-linejoin="bevel" stroke-linecap="round" stroke="#000000" />
<path d="M688,218 L832,218 832,442 720,442 " fill="none" stroke-width="2" stroke-linejoin="bevel" stroke-linecap="round" stroke="#000000" />
<path d="M240,394 L144,394 144,490 " fill="none" stroke-width="2" stroke-linejoin="bevel" stroke-linecap="round" stroke="#000000" />
<ellipse cx="144" cy="554" rx="35" ry="35" fill="none" stroke-width="2" stroke-linejoin="bevel" stroke-linecap="round" stroke="#000000" />
<path d="M128,570 L144,570 144,538 160,538 " fill="none" stroke-width="2" stroke-linejoin="bevel" stroke-linecap="round" stroke="#000000" />
<path d="M144,618 L144,650 " fill="none" stroke-width="2" stroke-linejoin="bevel" stroke-linecap="round" stroke="#000000" />
<path d="M112,650 L176,650 " fill="none" stroke-width="2" stroke-linejoin="bevel" stroke-linecap="round" stroke="#000000" />
<path d="M126,664 L162,664 " fill="none" stroke-width="2" stroke-linejoin="bevel" stroke-linecap="round" stroke="#000000" />
<path d="M140,678 L148,678 " fill="none" stroke-width="2" stroke-linejoin="bevel" stroke-linecap="round" stroke="#000000" />
<path d="M144,522 L144,490 " fill="none" stroke-width="2" stroke-linejoin="bevel" stroke-linecap="round" stroke="#000000" />
<path d="M144,618 L144,586 " fill="none" stroke-width="2" stroke-linejoin="bevel" stroke-linecap="round" stroke="#000000" />
<path d="M496,218 L560,218 " fill="none" stroke-width="2" stroke-linejoin="bevel" stroke-linecap="round" stroke="#000000" />
<path d="M512,394 L560,394 " fill="none" stroke-width="2" stroke-linejoin="bevel" stroke-linecap="round" stroke="#000000" />
<g transform="matrix(   1    0   -0    1 528 570)" fill="#000000" >
<text stroke="none" font-family="Helvetica" font-size="40" ><tspan x="0" y="0">0.8 V</tspan>
</text></g>
<g transform="matrix(   1    0   -0    1   0 570)" fill="#000000" >
<text stroke="none" font-family="Helvetica" font-size="40" ><tspan x="0" y="0">0.1 V</tspan>
</text></g>
<g transform="matrix(   1    0   -0    1 432 442)" fill="#000000" >
<text stroke="none" font-family="Helvetica" font-size="40" ><tspan x="0" y="0">0.8 V</tspan>
</text></g>
<g transform="matrix(   1    0   -0    1 256 330)" fill="#000000" >
<text stroke="none" font-family="Helvetica" font-size="40" ><tspan x="0" y="0">0.7 V</tspan>
</text></g>
<g transform="matrix(   1    0   -0    1 592 170)" fill="#000000" >
<text stroke="none" font-family="Helvetica" font-size="40" ><tspan x="0" y="0">0.3 V</tspan>
</text></g>
<g transform="matrix(   1    0   -0    1 736 170)" fill="#000000" >
<text stroke="none" font-family="Helvetica" font-size="40" ><tspan x="0" y="0">+</tspan>
</text></g>
<g transform="matrix(   1    0   -0    1 512 170)" fill="#000000" >
<text stroke="none" font-family="Helvetica" font-size="40" ><tspan x="0" y="0">-</tspan>
</text></g>
<g transform="matrix(   1    0   -0    1 384 330)" fill="#000000" >
<text stroke="none" font-family="Helvetica" font-size="40" ><tspan x="0" y="0">+</tspan>
</text></g>
<g transform="matrix(   1    0   -0    1 192 330)" fill="#000000" >
<text stroke="none" font-family="Helvetica" font-size="40" ><tspan x="0" y="0">-</tspan>
</text></g>
<g transform="matrix(   1    0   -0    1 592 282)" fill="#ff0000" >
<text stroke="none" font-family="Helvetica" font-size="40" ><tspan x="0" y="0">??</tspan>
</text></g>
<g transform="matrix(   1    0   -0    1 272 458)" fill="#ff0000" >
<text stroke="none" font-family="Helvetica" font-size="40" ><tspan x="0" y="0">??</tspan>
</text></g>
<path d="M832,74 L304,74 304,250 144,250 " fill="none" stroke-width="2" stroke-linejoin="bevel" stroke-linecap="round" stroke="#000000" />
<path d="M828,66 C818,71 815,71 800,74 C815,77 818,77 828,82 C826,76 826,72 828,66 " fill="#000000" stroke="none" />
<path d="M524,66 C514,71 511,71 496,74 C511,77 514,77 524,82 C522,76 522,72 524,66 " fill="#000000" stroke="none" />
<path d="M332,66 C322,71 319,71 304,74 C319,77 322,77 332,82 C330,76 330,72 332,66 " fill="#000000" stroke="none" />
<path d="M300,242 C290,247 287,247 272,250 C287,253 290,253 300,258 C298,252 298,248 300,242 " fill="#000000" stroke="none" />
<path d="M172,242 C162,247 159,247 144,250 C159,253 162,253 172,258 C170,252 170,248 172,242 " fill="#000000" stroke="none" />
<g transform="matrix(   1    0   -0    1 848 458)" fill="#0000ff" >
<text stroke="none" font-family="Helvetica" font-size="40" ><tspan x="0" y="0">V<tspan dy="9" font-size="26.8">out</tspan><tspan y="0"> = 1.1 V</tspan></tspan>
</text></g>
<g transform="matrix(   1    0   -0    1 544  26)" fill="#0000ff" >
<text stroke="none" font-family="Helvetica" font-size="40" ><tspan x="0" y="0">?? uA</tspan>
</text></g>
<path d="M1696,522 L1696,362 1856,442 z" fill="none" stroke-width="2" stroke-linejoin="bevel" stroke-linecap="round" stroke="#000000" />
<g transform="matrix(   1    0   -0    1 1715 400)" fill="#000000" >
<text stroke="none" font-family="Times" font-size="40" ><tspan x="-12" y="6">&#8722;</tspan>
</text></g>
<g transform="matrix(   1    0   -0    1 1715 492)" fill="#000000" >
<text stroke="none" font-family="Times" font-size="40" ><tspan x="-11" y="10">+</tspan>
</text></g>
<path d="M1504,394 L1476,394 " fill="none" stroke-width="2" stroke-linejoin="bevel" stroke-linecap="round" stroke="#000000" />
<path d="M1376,394 L1404,394 " fill="none" stroke-width="2" stroke-linejoin="bevel" stroke-linecap="round" stroke="#000000" />
<path d="M1404,394 L1410,408 1422,380 1434,408 1446,380 1458,408 1470,380 1476,394 " fill="none" stroke-width="2" stroke-linejoin="bevel" stroke-linecap="round" stroke="#000000" />
<path d="M1504,394 L1648,394 " fill="none" stroke-width="2" stroke-linejoin="bevel" stroke-linecap="round" stroke="#000000" />
<path d="M1824,218 L1796,218 " fill="none" stroke-width="2" stroke-linejoin="bevel" stroke-linecap="round" stroke="#000000" />
<path d="M1696,218 L1724,218 " fill="none" stroke-width="2" stroke-linejoin="bevel" stroke-linecap="round" stroke="#000000" />
<path d="M1724,218 L1730,232 1742,204 1754,232 1766,204 1778,232 1790,204 1796,218 " fill="none" stroke-width="2" stroke-linejoin="bevel" stroke-linecap="round" stroke="#000000" />
<path d="M1632,218 L1552,218 1552,394 " fill="none" stroke-width="2" stroke-linejoin="bevel" stroke-linecap="round" stroke="#000000" />
<ellipse cx="1552" cy="394" rx="6" ry="6" fill="#000000" stroke="none" />
<ellipse cx="1616" cy="554" rx="32" ry="32" fill="none" stroke-width="2" stroke-linejoin="bevel" stroke-linecap="round" stroke="#000000" />
<path d="M1616,522 L1616,490 " fill="none" stroke-width="2" stroke-linejoin="bevel" stroke-linecap="round" stroke="#000000" />
<path d="M1616,586 L1616,618 " fill="none" stroke-width="2" stroke-linejoin="bevel" stroke-linecap="round" stroke="#000000" />
<g transform="matrix(   1    0   -0    1 1616 540)" fill="#000000" >
<text stroke="none" font-family="Times" font-size="40" ><tspan x="-11" y="10">+</tspan>
</text></g>
<g transform="matrix(   1    0   -0    1 1616 576)" fill="#000000" >
<text stroke="none" font-family="Times" font-size="40" ><tspan x="-12" y="6">&#8722;</tspan>
</text></g>
<path d="M1616,618 L1616,650 " fill="none" stroke-width="2" stroke-linejoin="bevel" stroke-linecap="round" stroke="#000000" />
<path d="M1584,650 L1648,650 " fill="none" stroke-width="2" stroke-linejoin="bevel" stroke-linecap="round" stroke="#000000" />
<path d="M1598,664 L1634,664 " fill="none" stroke-width="2" stroke-linejoin="bevel" stroke-linecap="round" stroke="#000000" />
<path d="M1612,678 L1620,678 " fill="none" stroke-width="2" stroke-linejoin="bevel" stroke-linecap="round" stroke="#000000" />
<path d="M1616,490 L1696,490 " fill="none" stroke-width="2" stroke-linejoin="bevel" stroke-linecap="round" stroke="#000000" />
<path d="M1824,218 L1968,218 1968,442 1856,442 " fill="none" stroke-width="2" stroke-linejoin="bevel" stroke-linecap="round" stroke="#000000" />
<path d="M1376,394 L1280,394 1280,490 " fill="none" stroke-width="2" stroke-linejoin="bevel" stroke-linecap="round" stroke="#000000" />
<ellipse cx="1280" cy="554" rx="35" ry="35" fill="none" stroke-width="2" stroke-linejoin="bevel" stroke-linecap="round" stroke="#000000" />
<path d="M1264,570 L1280,570 1280,538 1296,538 " fill="none" stroke-width="2" stroke-linejoin="bevel" stroke-linecap="round" stroke="#000000" />
<path d="M1280,618 L1280,650 " fill="none" stroke-width="2" stroke-linejoin="bevel" stroke-linecap="round" stroke="#000000" />
<path d="M1248,650 L1312,650 " fill="none" stroke-width="2" stroke-linejoin="bevel" stroke-linecap="round" stroke="#000000" />
<path d="M1262,664 L1298,664 " fill="none" stroke-width="2" stroke-linejoin="bevel" stroke-linecap="round" stroke="#000000" />
<path d="M1276,678 L1284,678 " fill="none" stroke-width="2" stroke-linejoin="bevel" stroke-linecap="round" stroke="#000000" />
<path d="M1280,522 L1280,490 " fill="none" stroke-width="2" stroke-linejoin="bevel" stroke-linecap="round" stroke="#000000" />
<path d="M1280,618 L1280,586 " fill="none" stroke-width="2" stroke-linejoin="bevel" stroke-linecap="round" stroke="#000000" />
<path d="M1632,218 L1696,218 " fill="none" stroke-width="2" stroke-linejoin="bevel" stroke-linecap="round" stroke="#000000" />
<path d="M1648,394 L1696,394 " fill="none" stroke-width="2" stroke-linejoin="bevel" stroke-linecap="round" stroke="#000000" />
<g transform="matrix(   1    0   -0    1 1664 570)" fill="#000000" >
<text stroke="none" font-family="Helvetica" font-size="40" ><tspan x="0" y="0">0.8 V</tspan>
</text></g>
<g transform="matrix(   1    0   -0    1 1136 570)" fill="#000000" >
<text stroke="none" font-family="Helvetica" font-size="40" ><tspan x="0" y="0">1.1 V</tspan>
</text></g>
<g transform="matrix(   1    0   -0    1 1568 442)" fill="#000000" >
<text stroke="none" font-family="Helvetica" font-size="40" ><tspan x="0" y="0">0.8 V</tspan>
</text></g>
<g transform="matrix(   1    0   -0    1 1392 330)" fill="#000000" >
<text stroke="none" font-family="Helvetica" font-size="40" ><tspan x="0" y="0">0.3 V</tspan>
</text></g>
<g transform="matrix(   1    0   -0    1 1728 170)" fill="#000000" >
<text stroke="none" font-family="Helvetica" font-size="40" ><tspan x="0" y="0">0.7 V</tspan>
</text></g>
<g transform="matrix(   1    0   -0    1 1872 170)" fill="#000000" >
<text stroke="none" font-family="Helvetica" font-size="40" ><tspan x="0" y="0">+</tspan>
</text></g>
<g transform="matrix(   1    0   -0    1 1648 170)" fill="#000000" >
<text stroke="none" font-family="Helvetica" font-size="40" ><tspan x="0" y="0">-</tspan>
</text></g>
<g transform="matrix(   1    0   -0    1 1520 330)" fill="#000000" >
<text stroke="none" font-family="Helvetica" font-size="40" ><tspan x="0" y="0">+</tspan>
</text></g>
<g transform="matrix(   1    0   -0    1 1328 330)" fill="#000000" >
<text stroke="none" font-family="Helvetica" font-size="40" ><tspan x="0" y="0">-</tspan>
</text></g>
<g transform="matrix(   1    0   -0    1 1728 282)" fill="#ff0000" >
<text stroke="none" font-family="Helvetica" font-size="40" ><tspan x="0" y="0">??</tspan>
</text></g>
<g transform="matrix(   1    0   -0    1 1408 458)" fill="#ff0000" >
<text stroke="none" font-family="Helvetica" font-size="40" ><tspan x="0" y="0">??</tspan>
</text></g>
<path d="M1968,74 L1440,74 1440,250 1280,250 " fill="none" stroke-width="2" stroke-linejoin="bevel" stroke-linecap="round" stroke="#000000" />
<g transform="matrix(   1    0   -0    1 1984 458)" fill="#0000ff" >
<text stroke="none" font-family="Helvetica" font-size="40" ><tspan x="0" y="0">V<tspan dy="9" font-size="26.8">out</tspan><tspan y="0"> = 0.1 V</tspan></tspan>
</text></g>
<g transform="matrix(   1    0   -0    1 1680  26)" fill="#0000ff" >
<text stroke="none" font-family="Helvetica" font-size="40" ><tspan x="0" y="0">?? uA</tspan>
</text></g>
<path d="M1412,258 C1422,253 1425,253 1440,250 C1425,247 1422,247 1412,242 C1414,248 1414,252 1412,258 " fill="#000000" stroke="none" />
<path d="M1284,258 C1294,253 1297,253 1312,250 C1297,247 1294,247 1284,242 C1286,248 1286,252 1284,258 " fill="#000000" stroke="none" />
<path d="M1444,82 C1454,77 1457,77 1472,74 C1457,71 1454,71 1444,66 C1446,72 1446,76 1444,82 " fill="#000000" stroke="none" />
<path d="M1652,82 C1662,77 1665,77 1680,74 C1665,71 1662,71 1652,66 C1654,72 1654,76 1652,82 " fill="#000000" stroke="none" />
<path d="M1940,82 C1950,77 1953,77 1968,74 C1953,71 1950,71 1940,66 C1942,72 1942,76 1940,82 " fill="#000000" stroke="none" />
<g transform="matrix(   1    0   -0    1 208 458)" fill="#ff0000" >
<text stroke="none" font-family="Helvetica" font-size="40" ><tspan x="0" y="0">R<tspan dy="9" font-size="26.8">in</tspan></tspan>
</text></g>
<g transform="matrix(   1    0   -0    1 544 282)" fill="#ff0000" >
<text stroke="none" font-family="Helvetica" font-size="40" ><tspan x="0" y="0">R<tspan dy="9" font-size="26.8">f</tspan></tspan>
</text></g>
<g transform="matrix(   1    0   -0    1 1344 458)" fill="#ff0000" >
<text stroke="none" font-family="Helvetica" font-size="40" ><tspan x="0" y="0">R<tspan dy="9" font-size="26.8">in</tspan></tspan>
</text></g>
<g transform="matrix(   1    0   -0    1 1680 282)" fill="#ff0000" >
<text stroke="none" font-family="Helvetica" font-size="40" ><tspan x="0" y="0">R<tspan dy="9" font-size="26.8">f</tspan></tspan>
</text></g>
<g transform="matrix(   1    0   -0    1 224 842)" fill="#000000" >
<text stroke="none" font-family="Helvetica" font-size="40" ><tspan x="0" y="0">R<tspan dy="9" font-size="26.8">in</tspan></tspan>
</text></g>
<g transform="matrix(   1    0   -0    1 400 842)" fill="#000000" >
<text stroke="none" font-family="Helvetica" font-size="40" ><tspan x="0" y="0">R<tspan dy="9" font-size="26.8">f</tspan></tspan>
</text></g>
<g transform="matrix(   1    0   -0    1 224 778)" fill="#000000" >
<text stroke="none" font-family="Helvetica" font-size="40" ><tspan x="0" y="0">0.7</tspan>
</text></g>
<g transform="matrix(   1    0   -0    1 400 778)" fill="#000000" >
<text stroke="none" font-family="Helvetica" font-size="40" ><tspan x="0" y="0">0.3</tspan>
</text></g>
<g transform="matrix(   1    0   -0    1 320 810)" fill="#000000" >
<text stroke="none" font-family="Helvetica" font-size="40" ><tspan x="0" y="0">=</tspan>
</text></g>
<path d="M208,794 L288,794 " fill="none" stroke-width="2" stroke-linejoin="bevel" stroke-linecap="round" stroke="#000000" />
<path d="M384,794 L464,794 " fill="none" stroke-width="2" stroke-linejoin="bevel" stroke-linecap="round" stroke="#000000" />
<g transform="matrix(   1    0   -0    1  48 794)" fill="#000000" >
<text stroke="none" font-family="Helvetica" font-size="40" ><tspan x="0" y="0">KCL:</tspan>
</text></g>
<path d="M544,794 L592,794 " fill="none" stroke-width="2" stroke-linejoin="bevel" stroke-linecap="round" stroke="#000000" />
<path d="M544,810 L592,810 " fill="none" stroke-width="2" stroke-linejoin="bevel" stroke-linecap="round" stroke="#000000" />
<path d="M592,778 L608,794 624,810 592,842 " fill="none" stroke-width="2" stroke-linejoin="bevel" stroke-linecap="round" stroke="#000000" />
<g transform="matrix(   1    0   -0    1 688 842)" fill="#000000" >
<text stroke="none" font-family="Helvetica" font-size="40" ><tspan x="0" y="0">R<tspan dy="9" font-size="26.8">in</tspan></tspan>
</text></g>
<g transform="matrix(   1    0   -0    1 688 778)" fill="#000000" >
<text stroke="none" font-family="Helvetica" font-size="40" ><tspan x="0" y="0">R<tspan dy="9" font-size="26.8">f</tspan></tspan>
</text></g>
<g transform="matrix(   1    0   -0    1 864 842)" fill="#000000" >
<text stroke="none" font-family="Helvetica" font-size="40" ><tspan x="0" y="0">7</tspan>
</text></g>
<g transform="matrix(   1    0   -0    1 864 778)" fill="#000000" >
<text stroke="none" font-family="Helvetica" font-size="40" ><tspan x="0" y="0">3</tspan>
</text></g>
<g transform="matrix(   1    0   -0    1 784 810)" fill="#000000" >
<text stroke="none" font-family="Helvetica" font-size="40" ><tspan x="0" y="0">=</tspan>
</text></g>
<path d="M672,794 L752,794 " fill="none" stroke-width="2" stroke-linejoin="bevel" stroke-linecap="round" stroke="#000000" />
<path d="M848,794 L928,794 " fill="none" stroke-width="2" stroke-linejoin="bevel" stroke-linecap="round" stroke="#000000" />
<path d="M1088,650 L1088,890 " fill="none" stroke-width="2" stroke-linejoin="bevel" stroke-linecap="round" stroke="#000000" />
<g transform="matrix(   1    0   -0    1 1296 842)" fill="#000000" >
<text stroke="none" font-family="Helvetica" font-size="40" ><tspan x="0" y="0">R<tspan dy="9" font-size="26.8">in</tspan></tspan>
</text></g>
<g transform="matrix(   1    0   -0    1 1472 842)" fill="#000000" >
<text stroke="none" font-family="Helvetica" font-size="40" ><tspan x="0" y="0">R<tspan dy="9" font-size="26.8">f</tspan></tspan>
</text></g>
<g transform="matrix(   1    0   -0    1 1472 778)" fill="#000000" >
<text stroke="none" font-family="Helvetica" font-size="40" ><tspan x="0" y="0">0.7</tspan>
</text></g>
<g transform="matrix(   1    0   -0    1 1296 778)" fill="#000000" >
<text stroke="none" font-family="Helvetica" font-size="40" ><tspan x="0" y="0">0.3</tspan>
</text></g>
<g transform="matrix(   1    0   -0    1 1392 810)" fill="#000000" >
<text stroke="none" font-family="Helvetica" font-size="40" ><tspan x="0" y="0">=</tspan>
</text></g>
<path d="M1280,794 L1360,794 " fill="none" stroke-width="2" stroke-linejoin="bevel" stroke-linecap="round" stroke="#000000" />
<path d="M1456,794 L1536,794 " fill="none" stroke-width="2" stroke-linejoin="bevel" stroke-linecap="round" stroke="#000000" />
<path d="M1616,794 L1664,794 " fill="none" stroke-width="2" stroke-linejoin="bevel" stroke-linecap="round" stroke="#000000" />
<path d="M1616,810 L1664,810 " fill="none" stroke-width="2" stroke-linejoin="bevel" stroke-linecap="round" stroke="#000000" />
<path d="M1664,778 L1680,794 1696,810 1664,842 " fill="none" stroke-width="2" stroke-linejoin="bevel" stroke-linecap="round" stroke="#000000" />
<g transform="matrix(   1    0   -0    1 1760 842)" fill="#000000" >
<text stroke="none" font-family="Helvetica" font-size="40" ><tspan x="0" y="0">R<tspan dy="9" font-size="26.8">in</tspan></tspan>
</text></g>
<g transform="matrix(   1    0   -0    1 1760 778)" fill="#000000" >
<text stroke="none" font-family="Helvetica" font-size="40" ><tspan x="0" y="0">R<tspan dy="9" font-size="26.8">f</tspan></tspan>
</text></g>
<g transform="matrix(   1    0   -0    1 1936 778)" fill="#000000" >
<text stroke="none" font-family="Helvetica" font-size="40" ><tspan x="0" y="0">7</tspan>
</text></g>
<g transform="matrix(   1    0   -0    1 1936 842)" fill="#000000" >
<text stroke="none" font-family="Helvetica" font-size="40" ><tspan x="0" y="0">3</tspan>
</text></g>
<g transform="matrix(   1    0   -0    1 1856 810)" fill="#000000" >
<text stroke="none" font-family="Helvetica" font-size="40" ><tspan x="0" y="0">=</tspan>
</text></g>
<path d="M1744,794 L1824,794 " fill="none" stroke-width="2" stroke-linejoin="bevel" stroke-linecap="round" stroke="#000000" />
<path d="M1920,794 L2000,794 " fill="none" stroke-width="2" stroke-linejoin="bevel" stroke-linecap="round" stroke="#000000" />
</g>
</svg>
