<?xml version="1.0" encoding="UTF-8" standalone="no"?>
<svg
   version="1.1"
   id="/home/anbu/QucsWorkspace/CH_24_OpAmpsI_prj/Docs/Figure_24_31/ASSETS/5_StupidIde"
   width="100%"
   height="100%"
   viewBox="-6 -6 1129 690"
   xmlns="http://www.w3.org/2000/svg"
   xmlns:svg="http://www.w3.org/2000/svg">
  <defs
     id="defs1313">
    <filter
       style="color-interpolation-filters:sRGB;"
       id="filter1434"
       x="-0.00089047195"
       y="-0.0014619883"
       width="1.0017809"
       height="1.002924">
      <feColorMatrix
         values="-1 0 0 0 1 0 -1 0 0 1 0 0 -1 0 1 -0.21 -0.72 -0.07 2 0 "
         result="color2"
         id="feColorMatrix1432" />
    </filter>
  </defs>
  <desc
     id="desc1162">
XCircuit Version 3.9
File &quot;/home/anbu/QucsWorkspace/CH_24_OpAmpsI_prj/Docs/Figure_24_31/ASSETS/5_StupidIdea.ps&quot; Page 1
</desc>
  <g
     stroke="black"
     id="g1308"
     style="filter:url(#filter1434)">
    <path
       d="M259,88 L259,8 331,48 z"
       fill="none"
       stroke-width="2"
       stroke-linejoin="bevel"
       stroke-linecap="round"
       stroke="#000000"
       id="path1164" />
    <path
       d="M259,48 L243,48 "
       fill="none"
       stroke-width="2"
       stroke-linejoin="bevel"
       stroke-linecap="round"
       stroke="#000000"
       id="path1166" />
    <path
       d="M331,48 L355,48 "
       fill="none"
       stroke-width="2"
       stroke-linejoin="bevel"
       stroke-linecap="round"
       stroke="#000000"
       id="path1168" />
    <path
       d="M323,0 L323,96 "
       fill="none"
       stroke-width="2"
       stroke-linejoin="bevel"
       stroke-linecap="round"
       stroke="#000000"
       id="path1170" />
    <path
       d="M531,48 L503,48 "
       fill="none"
       stroke-width="2"
       stroke-linejoin="bevel"
       stroke-linecap="round"
       stroke="#000000"
       id="path1172" />
    <path
       d="M403,48 L431,48 "
       fill="none"
       stroke-width="2"
       stroke-linejoin="bevel"
       stroke-linecap="round"
       stroke="#000000"
       id="path1174" />
    <path
       d="M431,48 L437,62 449,34 461,62 473,34 485,62 497,34 503,48 "
       fill="none"
       stroke-width="2"
       stroke-linejoin="bevel"
       stroke-linecap="round"
       stroke="#000000"
       id="path1176" />
    <path
       d="M403,48 L355,48 "
       fill="none"
       stroke-width="2"
       stroke-linejoin="bevel"
       stroke-linecap="round"
       stroke="#000000"
       id="path1178" />
    <path
       d="M659,88 L659,8 731,48 z"
       fill="none"
       stroke-width="2"
       stroke-linejoin="bevel"
       stroke-linecap="round"
       stroke="#000000"
       id="path1180" />
    <path
       d="M659,48 L643,48 "
       fill="none"
       stroke-width="2"
       stroke-linejoin="bevel"
       stroke-linecap="round"
       stroke="#000000"
       id="path1182" />
    <path
       d="M731,48 L755,48 "
       fill="none"
       stroke-width="2"
       stroke-linejoin="bevel"
       stroke-linecap="round"
       stroke="#000000"
       id="path1184" />
    <path
       d="M723,0 L723,96 "
       fill="none"
       stroke-width="2"
       stroke-linejoin="bevel"
       stroke-linecap="round"
       stroke="#000000"
       id="path1186" />
    <path
       d="M931,48 L903,48 "
       fill="none"
       stroke-width="2"
       stroke-linejoin="bevel"
       stroke-linecap="round"
       stroke="#000000"
       id="path1188" />
    <path
       d="M803,48 L831,48 "
       fill="none"
       stroke-width="2"
       stroke-linejoin="bevel"
       stroke-linecap="round"
       stroke="#000000"
       id="path1190" />
    <path
       d="M831,48 L837,62 849,34 861,62 873,34 885,62 897,34 903,48 "
       fill="none"
       stroke-width="2"
       stroke-linejoin="bevel"
       stroke-linecap="round"
       stroke="#000000"
       id="path1192" />
    <path
       d="M803,48 L755,48 "
       fill="none"
       stroke-width="2"
       stroke-linejoin="bevel"
       stroke-linecap="round"
       stroke="#000000"
       id="path1194" />
    <path
       d="M531,48 L643,48 "
       fill="none"
       stroke-width="2"
       stroke-linejoin="bevel"
       stroke-linecap="round"
       stroke="#000000"
       id="path1196" />
    <path
       d="M723,168 L723,248 651,208 z"
       fill="none"
       stroke-width="2"
       stroke-linejoin="bevel"
       stroke-linecap="round"
       stroke="#000000"
       id="path1198" />
    <path
       d="M723,208 L739,208 "
       fill="none"
       stroke-width="2"
       stroke-linejoin="bevel"
       stroke-linecap="round"
       stroke="#000000"
       id="path1200" />
    <path
       d="M651,208 L627,208 "
       fill="none"
       stroke-width="2"
       stroke-linejoin="bevel"
       stroke-linecap="round"
       stroke="#000000"
       id="path1202" />
    <path
       d="M659,160 L659,256 "
       fill="none"
       stroke-width="2"
       stroke-linejoin="bevel"
       stroke-linecap="round"
       stroke="#000000"
       id="path1204" />
    <path
       d="M947,208 L919,208 "
       fill="none"
       stroke-width="2"
       stroke-linejoin="bevel"
       stroke-linecap="round"
       stroke="#000000"
       id="path1206" />
    <path
       d="M819,208 L847,208 "
       fill="none"
       stroke-width="2"
       stroke-linejoin="bevel"
       stroke-linecap="round"
       stroke="#000000"
       id="path1208" />
    <path
       d="M847,208 L853,222 865,194 877,222 889,194 901,222 913,194 919,208 "
       fill="none"
       stroke-width="2"
       stroke-linejoin="bevel"
       stroke-linecap="round"
       stroke="#000000"
       id="path1210" />
    <path
       d="M819,208 L739,208 "
       fill="none"
       stroke-width="2"
       stroke-linejoin="bevel"
       stroke-linecap="round"
       stroke="#000000"
       id="path1212" />
    <path
       d="M323,168 L323,248 251,208 z"
       fill="none"
       stroke-width="2"
       stroke-linejoin="bevel"
       stroke-linecap="round"
       stroke="#000000"
       id="path1214" />
    <path
       d="M323,208 L339,208 "
       fill="none"
       stroke-width="2"
       stroke-linejoin="bevel"
       stroke-linecap="round"
       stroke="#000000"
       id="path1216" />
    <path
       d="M251,208 L227,208 "
       fill="none"
       stroke-width="2"
       stroke-linejoin="bevel"
       stroke-linecap="round"
       stroke="#000000"
       id="path1218" />
    <path
       d="M259,160 L259,256 "
       fill="none"
       stroke-width="2"
       stroke-linejoin="bevel"
       stroke-linecap="round"
       stroke="#000000"
       id="path1220" />
    <path
       d="M547,208 L519,208 "
       fill="none"
       stroke-width="2"
       stroke-linejoin="bevel"
       stroke-linecap="round"
       stroke="#000000"
       id="path1222" />
    <path
       d="M419,208 L447,208 "
       fill="none"
       stroke-width="2"
       stroke-linejoin="bevel"
       stroke-linecap="round"
       stroke="#000000"
       id="path1224" />
    <path
       d="M447,208 L453,222 465,194 477,222 489,194 501,222 513,194 519,208 "
       fill="none"
       stroke-width="2"
       stroke-linejoin="bevel"
       stroke-linecap="round"
       stroke="#000000"
       id="path1226" />
    <path
       d="M419,208 L339,208 "
       fill="none"
       stroke-width="2"
       stroke-linejoin="bevel"
       stroke-linecap="round"
       stroke="#000000"
       id="path1228" />
    <path
       d="M547,208 L627,208 "
       fill="none"
       stroke-width="2"
       stroke-linejoin="bevel"
       stroke-linecap="round"
       stroke="#000000"
       id="path1230" />
    <path
       d="M579,48 L579,208 "
       fill="none"
       stroke-width="2"
       stroke-linejoin="bevel"
       stroke-linecap="round"
       stroke="#000000"
       id="path1232" />
    <path
       d="M243,48 L179,48 179,208 227,208 "
       fill="none"
       stroke-width="2"
       stroke-linejoin="bevel"
       stroke-linecap="round"
       stroke="#000000"
       id="path1234" />
    <path
       d="M931,48 L995,48 995,208 947,208 "
       fill="none"
       stroke-width="2"
       stroke-linejoin="bevel"
       stroke-linecap="round"
       stroke="#000000"
       id="path1236" />
    <ellipse
       cx="579"
       cy="48"
       rx="6"
       ry="6"
       fill="#000000"
       stroke="none"
       id="ellipse1238" />
    <ellipse
       cx="579"
       cy="208"
       rx="6"
       ry="6"
       fill="#000000"
       stroke="none"
       id="ellipse1240" />
    <path
       d="M659,528 L659,368 819,448 z"
       fill="none"
       stroke-width="2"
       stroke-linejoin="bevel"
       stroke-linecap="round"
       stroke="#000000"
       id="path1242" />
    <g
       transform="matrix(   1    0   -0    1 678 406)"
       fill="#000000"
       id="g1248">
      <text
         stroke="none"
         font-family="Times"
         font-size="40"
         id="text1246"><tspan
           x="-12"
           y="6"
           id="tspan1244">−</tspan></text>
    </g>
    <g
       transform="matrix(   1    0   -0    1 678 498)"
       fill="#000000"
       id="g1254">
      <text
         stroke="none"
         font-family="Times"
         font-size="40"
         id="text1252"><tspan
           x="-11"
           y="10"
           id="tspan1250">+</tspan></text>
    </g>
    <path
       d="M659,400 L579,400 579,208 "
       fill="none"
       stroke-width="2"
       stroke-linejoin="bevel"
       stroke-linecap="round"
       stroke="#000000"
       id="path1256" />
    <path
       d="M179,128 L35,128 35,480 "
       fill="none"
       stroke-width="2"
       stroke-linejoin="bevel"
       stroke-linecap="round"
       stroke="#000000"
       id="path1258" />
    <path
       d="M819,448 L1123,448 1123,128 995,128 "
       fill="none"
       stroke-width="2"
       stroke-linejoin="bevel"
       stroke-linecap="round"
       stroke="#000000"
       id="path1260" />
    <ellipse
       cx="179"
       cy="128"
       rx="6"
       ry="6"
       fill="#000000"
       stroke="none"
       id="ellipse1262" />
    <ellipse
       cx="995"
       cy="128"
       rx="6"
       ry="6"
       fill="#000000"
       stroke="none"
       id="ellipse1264" />
    <ellipse
       cx="35"
       cy="512"
       rx="35"
       ry="35"
       fill="none"
       stroke-width="2"
       stroke-linejoin="bevel"
       stroke-linecap="round"
       stroke="#000000"
       id="ellipse1266" />
    <path
       d="M19,528 L35,528 35,496 51,496 "
       fill="none"
       stroke-width="2"
       stroke-linejoin="bevel"
       stroke-linecap="round"
       stroke="#000000"
       id="path1268" />
    <ellipse
       cx="579"
       cy="560"
       rx="32"
       ry="32"
       fill="none"
       stroke-width="2"
       stroke-linejoin="bevel"
       stroke-linecap="round"
       stroke="#000000"
       id="ellipse1270" />
    <path
       d="M579,528 L579,496 "
       fill="none"
       stroke-width="2"
       stroke-linejoin="bevel"
       stroke-linecap="round"
       stroke="#000000"
       id="path1272" />
    <path
       d="M579,592 L579,624 "
       fill="none"
       stroke-width="2"
       stroke-linejoin="bevel"
       stroke-linecap="round"
       stroke="#000000"
       id="path1274" />
    <g
       transform="matrix(   1    0   -0    1 579 546)"
       fill="#000000"
       id="g1280">
      <text
         stroke="none"
         font-family="Times"
         font-size="40"
         id="text1278"><tspan
           x="-11"
           y="10"
           id="tspan1276">+</tspan></text>
    </g>
    <g
       transform="matrix(   1    0   -0    1 579 582)"
       fill="#000000"
       id="g1286">
      <text
         stroke="none"
         font-family="Times"
         font-size="40"
         id="text1284"><tspan
           x="-12"
           y="6"
           id="tspan1282">−</tspan></text>
    </g>
    <path
       d="M579,624 L579,656 "
       fill="none"
       stroke-width="2"
       stroke-linejoin="bevel"
       stroke-linecap="round"
       stroke="#000000"
       id="path1288" />
    <path
       d="M547,656 L611,656 "
       fill="none"
       stroke-width="2"
       stroke-linejoin="bevel"
       stroke-linecap="round"
       stroke="#000000"
       id="path1290" />
    <path
       d="M561,670 L597,670 "
       fill="none"
       stroke-width="2"
       stroke-linejoin="bevel"
       stroke-linecap="round"
       stroke="#000000"
       id="path1292" />
    <path
       d="M575,684 L583,684 "
       fill="none"
       stroke-width="2"
       stroke-linejoin="bevel"
       stroke-linecap="round"
       stroke="#000000"
       id="path1294" />
    <path
       d="M35,624 L35,656 "
       fill="none"
       stroke-width="2"
       stroke-linejoin="bevel"
       stroke-linecap="round"
       stroke="#000000"
       id="path1296" />
    <path
       d="M3,656 L67,656 "
       fill="none"
       stroke-width="2"
       stroke-linejoin="bevel"
       stroke-linecap="round"
       stroke="#000000"
       id="path1298" />
    <path
       d="M17,670 L53,670 "
       fill="none"
       stroke-width="2"
       stroke-linejoin="bevel"
       stroke-linecap="round"
       stroke="#000000"
       id="path1300" />
    <path
       d="M31,684 L39,684 "
       fill="none"
       stroke-width="2"
       stroke-linejoin="bevel"
       stroke-linecap="round"
       stroke="#000000"
       id="path1302" />
    <path
       d="M35,624 L35,544 "
       fill="none"
       stroke-width="2"
       stroke-linejoin="bevel"
       stroke-linecap="round"
       stroke="#000000"
       id="path1304" />
    <path
       d="M579,496 L659,496 "
       fill="none"
       stroke-width="2"
       stroke-linejoin="bevel"
       stroke-linecap="round"
       stroke="#000000"
       id="path1306" />
  </g>
</svg>
